solid OBJECT
  facet normal -0 0 1
    outer loop
      vertex 50 0 0
      vertex 71 0 0
      vertex 71 4 0
    endloop
  endfacet
  facet normal -0 0 1
    outer loop
      vertex 50 0 0
      vertex 71 4 0
      vertex 50 4 0
    endloop
  endfacet
  facet normal -0.70710678118654746 -0 0.70710678118654746
    outer loop
      vertex 35.355339050292969 0 35.355339050292969
      vertex 50.204582214355469 0 50.204582214355469
      vertex 50.204582214355469 4 50.204582214355469
    endloop
  endfacet
  facet normal -0.70710678118654746 -0 0.70710678118654746
    outer loop
      vertex 35.355339050292969 0 35.355339050292969
      vertex 50.204582214355469 4 50.204582214355469
      vertex 35.355339050292969 4 35.355339050292969
    endloop
  endfacet
  facet normal -0.70710678118654746 -0 -0.70710678118654746
    outer loop
      vertex -35.355339050292969 0 35.355339050292969
      vertex -50.204582214355469 0 50.204582214355469
      vertex -50.204582214355469 4 50.204582214355469
    endloop
  endfacet
  facet normal -0.70710678118654746 -0 -0.70710678118654746
    outer loop
      vertex -35.355339050292969 0 35.355339050292969
      vertex -50.204582214355469 4 50.204582214355469
      vertex -35.355339050292969 4 35.355339050292969
    endloop
  endfacet
  facet normal -0 -0 -1
    outer loop
      vertex -50 0 0
      vertex -71 0 0
      vertex -71 4 0
    endloop
  endfacet
  facet normal -0 -0 -1
    outer loop
      vertex -50 0 0
      vertex -71 4 0
      vertex -50 4 0
    endloop
  endfacet
  facet normal 0.70710678118654746 -0 -0.70710678118654746
    outer loop
      vertex -35.355339050292969 0 -35.355339050292969
      vertex -50.204582214355469 0 -50.204582214355469
      vertex -50.204582214355469 4 -50.204582214355469
    endloop
  endfacet
  facet normal 0.70710678118654746 0 -0.70710678118654746
    outer loop
      vertex -35.355339050292969 0 -35.355339050292969
      vertex -50.204582214355469 4 -50.204582214355469
      vertex -35.355339050292969 4 -35.355339050292969
    endloop
  endfacet
  facet normal 0.70710678118654746 -0 0.70710678118654746
    outer loop
      vertex 35.355339050292969 0 -35.355339050292969
      vertex 50.204582214355469 0 -50.204582214355469
      vertex 50.204582214355469 4 -50.204582214355469
    endloop
  endfacet
  facet normal 0.70710678118654746 0 0.70710678118654746
    outer loop
      vertex 35.355339050292969 0 -35.355339050292969
      vertex 50.204582214355469 4 -50.204582214355469
      vertex 35.355339050292969 4 -35.355339050292969
    endloop
  endfacet
  facet normal -0 -1 0
    outer loop
      vertex 0 0 71
      vertex -18.70759391784668 0 68.440521240234375
      vertex -12.934389114379883 0 48.284309387207031
    endloop
  endfacet
  facet normal 0 -1 0
    outer loop
      vertex 0 0 -71
      vertex 0 0 -50
      vertex -12.93150806427002 0 -48.285060882568359
    endloop
  endfacet
  facet normal 0 -1 -0
    outer loop
      vertex -18.709125518798828 0 -68.440109252929688
      vertex -12.93150806427002 0 -48.285060882568359
      vertex -35.023086547851562 0 -61.723041534423828
    endloop
  endfacet
  facet normal 0 -1 -0
    outer loop
      vertex -35.023086547851562 0 -61.723041534423828
      vertex -24.987594604492188 0 -43.302337646484375
      vertex -50.447555541992188 0 -49.891387939453125
    endloop
  endfacet
  facet normal 0 -1 -0
    outer loop
      vertex -50.447555541992188 0 -49.891387939453125
      vertex -35.371570587158203 0 -35.338245391845703
      vertex -43.301410675048828 0 -24.989274978637695
    endloop
  endfacet
  facet normal -0 -1 -0
    outer loop
      vertex -61.294391632080078 0 -35.759403228759766
      vertex -43.301410675048828 0 -24.989274978637695
      vertex -68.623184204101562 0 -18.025888442993164
    endloop
  endfacet
  facet normal 0 -1 -0
    outer loop
      vertex -68.623184204101562 0 -18.025888442993164
      vertex -48.285957336425781 0 -12.928064346313477
      vertex -49.999893188476562 0 -0.004766649566590786
    endloop
  endfacet
  facet normal 0 -1 -0
    outer loop
      vertex -70.961997985839844 0 -0.34176880121231079
      vertex -49.999893188476562 0 -0.004766649566590786
      vertex -68.446159362792969 0 18.686553955078125
    endloop
  endfacet
  facet normal 0 -1 -0
    outer loop
      vertex -68.446159362792969 0 18.686553955078125
      vertex -48.285041809082031 0 12.93157958984375
      vertex -43.305816650390625 0 24.98126220703125
    endloop
  endfacet
  facet normal -0 -1 0
    outer loop
      vertex -61.640274047851562 0 35.164806365966797
      vertex -43.305816650390625 0 24.98126220703125
      vertex -50.403133392333984 0 49.935810089111328
    endloop
  endfacet
  facet normal -0 -1 0
    outer loop
      vertex -50.403133392333984 0 49.935810089111328
      vertex -35.347969055175781 0 35.362335205078125
      vertex -35.199916839599609 0 61.617488861083984
    endloop
  endfacet
  facet normal -0 -1 0
    outer loop
      vertex -35.199916839599609 0 61.617488861083984
      vertex -24.985576629638672 0 43.303447723388672
      vertex -18.70759391784668 0 68.440521240234375
    endloop
  endfacet
  facet normal 0 -1 0
    outer loop
      vertex 0 0 50
      vertex 12.934389114379883 0 48.284309387207031
      vertex 0 0 71
    endloop
  endfacet
  facet normal -0 -1 0
    outer loop
      vertex 18.709125518798828 0 -68.440109252929688
      vertex 12.93150806427002 0 -48.285060882568359
      vertex 0 0 -71
    endloop
  endfacet
  facet normal 0 -1 0
    outer loop
      vertex 35.023086547851562 0 -61.723041534423828
      vertex 24.987594604492188 0 -43.302337646484375
      vertex 12.93150806427002 0 -48.285060882568359
    endloop
  endfacet
  facet normal 0 -1 0
    outer loop
      vertex 50.447555541992188 0 -49.891387939453125
      vertex 35.371570587158203 0 -35.338245391845703
      vertex 24.987594604492188 0 -43.302337646484375
    endloop
  endfacet
  facet normal 0 -1 0
    outer loop
      vertex 61.294391632080078 0 -35.759403228759766
      vertex 43.301410675048828 0 -24.989274978637695
      vertex 50.447555541992188 0 -49.891387939453125
    endloop
  endfacet
  facet normal 0 -1 0
    outer loop
      vertex 68.623184204101562 0 -18.025888442993164
      vertex 48.285957336425781 0 -12.928064346313477
      vertex 43.301410675048828 0 -24.989274978637695
    endloop
  endfacet
  facet normal 0 -1 0
    outer loop
      vertex 70.961997985839844 0 -0.34176880121231079
      vertex 49.999893188476562 0 -0.004766649566590786
      vertex 68.623184204101562 0 -18.025888442993164
    endloop
  endfacet
  facet normal -0 -1 0
    outer loop
      vertex 68.446159362792969 0 18.686553955078125
      vertex 48.285041809082031 0 12.93157958984375
      vertex 49.999893188476562 0 -0.004766649566590786
    endloop
  endfacet
  facet normal 0 -1 0
    outer loop
      vertex 61.640274047851562 0 35.164806365966797
      vertex 43.305816650390625 0 24.98126220703125
      vertex 68.446159362792969 0 18.686553955078125
    endloop
  endfacet
  facet normal 0 -1 0
    outer loop
      vertex 50.403133392333984 0 49.935810089111328
      vertex 35.347969055175781 0 35.362335205078125
      vertex 43.305816650390625 0 24.98126220703125
    endloop
  endfacet
  facet normal -0 -1 0
    outer loop
      vertex 35.199916839599609 0 61.617488861083984
      vertex 24.985576629638672 0 43.303447723388672
      vertex 35.347969055175781 0 35.362335205078125
    endloop
  endfacet
  facet normal -0 -1 0
    outer loop
      vertex 18.70759391784668 0 68.440521240234375
      vertex 12.934389114379883 0 48.284309387207031
      vertex 24.985576629638672 0 43.303447723388672
    endloop
  endfacet
  facet normal 0 -1 -0
    outer loop
      vertex 0 0 71
      vertex -12.934389114379883 0 48.284309387207031
      vertex 0 0 50
    endloop
  endfacet
  facet normal -0 -1 0
    outer loop
      vertex 0 0 -71
      vertex -12.93150806427002 0 -48.285060882568359
      vertex -18.709125518798828 0 -68.440109252929688
    endloop
  endfacet
  facet normal 0 -1 0
    outer loop
      vertex -12.93150806427002 0 -48.285060882568359
      vertex -24.987594604492188 0 -43.302337646484375
      vertex -35.023086547851562 0 -61.723041534423828
    endloop
  endfacet
  facet normal 0 -1 0
    outer loop
      vertex -24.987594604492188 0 -43.302337646484375
      vertex -35.371570587158203 0 -35.338245391845703
      vertex -50.447555541992188 0 -49.891387939453125
    endloop
  endfacet
  facet normal 0 -1 0
    outer loop
      vertex -50.447555541992188 0 -49.891387939453125
      vertex -43.301410675048828 0 -24.989274978637695
      vertex -61.294391632080078 0 -35.759403228759766
    endloop
  endfacet
  facet normal 0 -1 0
    outer loop
      vertex -43.301410675048828 0 -24.989274978637695
      vertex -48.285957336425781 0 -12.928064346313477
      vertex -68.623184204101562 0 -18.025888442993164
    endloop
  endfacet
  facet normal 0 -1 -0
    outer loop
      vertex -68.623184204101562 0 -18.025888442993164
      vertex -49.999893188476562 0 -0.004766649566590786
      vertex -70.961997985839844 0 -0.34176880121231079
    endloop
  endfacet
  facet normal -0 -1 -0
    outer loop
      vertex -49.999893188476562 0 -0.004766649566590786
      vertex -48.285041809082031 0 12.93157958984375
      vertex -68.446159362792969 0 18.686553955078125
    endloop
  endfacet
  facet normal 0 -1 -0
    outer loop
      vertex -68.446159362792969 0 18.686553955078125
      vertex -43.305816650390625 0 24.98126220703125
      vertex -61.640274047851562 0 35.164806365966797
    endloop
  endfacet
  facet normal 0 -1 0
    outer loop
      vertex -43.305816650390625 0 24.98126220703125
      vertex -35.347969055175781 0 35.362335205078125
      vertex -50.403133392333984 0 49.935810089111328
    endloop
  endfacet
  facet normal 0 -1 -0
    outer loop
      vertex -35.347969055175781 0 35.362335205078125
      vertex -24.985576629638672 0 43.303447723388672
      vertex -35.199916839599609 0 61.617488861083984
    endloop
  endfacet
  facet normal 0 -1 -0
    outer loop
      vertex -24.985576629638672 0 43.303447723388672
      vertex -12.934389114379883 0 48.284309387207031
      vertex -18.70759391784668 0 68.440521240234375
    endloop
  endfacet
  facet normal -0 -1 -0
    outer loop
      vertex 12.934389114379883 0 48.284309387207031
      vertex 18.70759391784668 0 68.440521240234375
      vertex 0 0 71
    endloop
  endfacet
  facet normal -0 -1 0
    outer loop
      vertex 12.93150806427002 0 -48.285060882568359
      vertex 0 0 -50
      vertex 0 0 -71
    endloop
  endfacet
  facet normal 0 -1 0
    outer loop
      vertex 35.023086547851562 0 -61.723041534423828
      vertex 12.93150806427002 0 -48.285060882568359
      vertex 18.709125518798828 0 -68.440109252929688
    endloop
  endfacet
  facet normal 0 -1 0
    outer loop
      vertex 50.447555541992188 0 -49.891387939453125
      vertex 24.987594604492188 0 -43.302337646484375
      vertex 35.023086547851562 0 -61.723041534423828
    endloop
  endfacet
  facet normal -0 -1 0
    outer loop
      vertex 43.301410675048828 0 -24.989274978637695
      vertex 35.371570587158203 0 -35.338245391845703
      vertex 50.447555541992188 0 -49.891387939453125
    endloop
  endfacet
  facet normal -0 -1 0
    outer loop
      vertex 68.623184204101562 0 -18.025888442993164
      vertex 43.301410675048828 0 -24.989274978637695
      vertex 61.294391632080078 0 -35.759403228759766
    endloop
  endfacet
  facet normal 0 -1 0
    outer loop
      vertex 49.999893188476562 0 -0.004766649566590786
      vertex 48.285957336425781 0 -12.928064346313477
      vertex 68.623184204101562 0 -18.025888442993164
    endloop
  endfacet
  facet normal 0 -1 0
    outer loop
      vertex 68.446159362792969 0 18.686553955078125
      vertex 49.999893188476562 0 -0.004766649566590786
      vertex 70.961997985839844 0 -0.34176880121231079
    endloop
  endfacet
  facet normal -0 -1 -0
    outer loop
      vertex 43.305816650390625 0 24.98126220703125
      vertex 48.285041809082031 0 12.93157958984375
      vertex 68.446159362792969 0 18.686553955078125
    endloop
  endfacet
  facet normal -0 -1 0
    outer loop
      vertex 50.403133392333984 0 49.935810089111328
      vertex 43.305816650390625 0 24.98126220703125
      vertex 61.640274047851562 0 35.164806365966797
    endloop
  endfacet
  facet normal -0 -1 -0
    outer loop
      vertex 35.199916839599609 0 61.617488861083984
      vertex 35.347969055175781 0 35.362335205078125
      vertex 50.403133392333984 0 49.935810089111328
    endloop
  endfacet
  facet normal -0 -1 -0
    outer loop
      vertex 18.70759391784668 0 68.440521240234375
      vertex 24.985576629638672 0 43.303447723388672
      vertex 35.199916839599609 0 61.617488861083984
    endloop
  endfacet
  facet normal 1 0 0
    outer loop
      vertex 0 0 -50
      vertex 0 0 -71
      vertex 0 4 -71
    endloop
  endfacet
  facet normal 1 0 0
    outer loop
      vertex 0 0 -50
      vertex 0 4 -71
      vertex 0 4 -50
    endloop
  endfacet
  facet normal -1 -0 0
    outer loop
      vertex 0 0 50
      vertex 0 0 71
      vertex 0 4 71
    endloop
  endfacet
  facet normal -1 -0 0
    outer loop
      vertex 0 0 50
      vertex 0 4 71
      vertex 0 4 50
    endloop
  endfacet
endsolid OBJECT
