solid OBJECT
  facet normal -0 1 0
    outer loop
      vertex 0 50 71
      vertex -12.934389114379883 50 48.284309387207031
      vertex -18.70759391784668 50 68.440521240234375
    endloop
  endfacet
  facet normal 0 1 0
    outer loop
      vertex 0 50 -71
      vertex -12.93150806427002 50 -48.285060882568359
      vertex 0 50 -50
    endloop
  endfacet
  facet normal -0 1 0
    outer loop
      vertex -18.709125518798828 50 -68.440109252929688
      vertex -35.023086547851562 50 -61.723041534423828
      vertex -12.93150806427002 50 -48.285060882568359
    endloop
  endfacet
  facet normal -0 1 0
    outer loop
      vertex -35.023086547851562 50 -61.723041534423828
      vertex -50.447555541992188 50 -49.891387939453125
      vertex -24.987594604492188 50 -43.302337646484375
    endloop
  endfacet
  facet normal 0 1 -0
    outer loop
      vertex -50.447555541992188 50 -49.891387939453125
      vertex -43.301410675048828 50 -24.989274978637695
      vertex -35.371570587158203 50 -35.338245391845703
    endloop
  endfacet
  facet normal 0 1 0
    outer loop
      vertex -61.294391632080078 50 -35.759403228759766
      vertex -68.623184204101562 50 -18.025888442993164
      vertex -43.301410675048828 50 -24.989274978637695
    endloop
  endfacet
  facet normal 0 1 -0
    outer loop
      vertex -68.623184204101562 50 -18.025888442993164
      vertex -49.999893188476562 50 -0.004766649566590786
      vertex -48.285957336425781 50 -12.928064346313477
    endloop
  endfacet
  facet normal 0 1 -0
    outer loop
      vertex -70.961997985839844 50 -0.34176880121231079
      vertex -68.446159362792969 50 18.686553955078125
      vertex -49.999893188476562 50 -0.004766649566590786
    endloop
  endfacet
  facet normal 0 1 -0
    outer loop
      vertex -68.446159362792969 50 18.686553955078125
      vertex -43.305816650390625 50 24.98126220703125
      vertex -48.285041809082031 50 12.93157958984375
    endloop
  endfacet
  facet normal -0 1 0
    outer loop
      vertex -61.640274047851562 50 35.164806365966797
      vertex -50.403133392333984 50 49.935810089111328
      vertex -43.305816650390625 50 24.98126220703125
    endloop
  endfacet
  facet normal 0 1 0
    outer loop
      vertex -50.403133392333984 50 49.935810089111328
      vertex -35.199916839599609 50 61.617488861083984
      vertex -35.347969055175781 50 35.362335205078125
    endloop
  endfacet
  facet normal -0 1 0
    outer loop
      vertex -35.199916839599609 50 61.617488861083984
      vertex -18.70759391784668 50 68.440521240234375
      vertex -24.985576629638672 50 43.303447723388672
    endloop
  endfacet
  facet normal 0 1 0
    outer loop
      vertex 0 50 50
      vertex 0 50 71
      vertex 12.934389114379883 50 48.284309387207031
    endloop
  endfacet
  facet normal -0 1 0
    outer loop
      vertex 18.709125518798828 50 -68.440109252929688
      vertex 0 50 -71
      vertex 12.93150806427002 50 -48.285060882568359
    endloop
  endfacet
  facet normal 0 1 0
    outer loop
      vertex 35.023086547851562 50 -61.723041534423828
      vertex 12.93150806427002 50 -48.285060882568359
      vertex 24.987594604492188 50 -43.302337646484375
    endloop
  endfacet
  facet normal 0 1 0
    outer loop
      vertex 50.447555541992188 50 -49.891387939453125
      vertex 24.987594604492188 50 -43.302337646484375
      vertex 35.371570587158203 50 -35.338245391845703
    endloop
  endfacet
  facet normal -0 1 -0
    outer loop
      vertex 61.294391632080078 50 -35.759403228759766
      vertex 50.447555541992188 50 -49.891387939453125
      vertex 43.301410675048828 50 -24.989274978637695
    endloop
  endfacet
  facet normal 0 1 0
    outer loop
      vertex 68.623184204101562 50 -18.025888442993164
      vertex 43.301410675048828 50 -24.989274978637695
      vertex 48.285957336425781 50 -12.928064346313477
    endloop
  endfacet
  facet normal 0 1 0
    outer loop
      vertex 70.961997985839844 50 -0.34176880121231079
      vertex 68.623184204101562 50 -18.025888442993164
      vertex 49.999893188476562 50 -0.004766649566590786
    endloop
  endfacet
  facet normal -0 1 0
    outer loop
      vertex 68.446159362792969 50 18.686553955078125
      vertex 49.999893188476562 50 -0.004766649566590786
      vertex 48.285041809082031 50 12.93157958984375
    endloop
  endfacet
  facet normal 0 1 -0
    outer loop
      vertex 61.640274047851562 50 35.164806365966797
      vertex 68.446159362792969 50 18.686553955078125
      vertex 43.305816650390625 50 24.98126220703125
    endloop
  endfacet
  facet normal 0 1 0
    outer loop
      vertex 50.403133392333984 50 49.935810089111328
      vertex 43.305816650390625 50 24.98126220703125
      vertex 35.347969055175781 50 35.362335205078125
    endloop
  endfacet
  facet normal -0 1 0
    outer loop
      vertex 35.199916839599609 50 61.617488861083984
      vertex 35.347969055175781 50 35.362335205078125
      vertex 24.985576629638672 50 43.303447723388672
    endloop
  endfacet
  facet normal -0 1 0
    outer loop
      vertex 18.70759391784668 50 68.440521240234375
      vertex 24.985576629638672 50 43.303447723388672
      vertex 12.934389114379883 50 48.284309387207031
    endloop
  endfacet
  facet normal 0 1 -0
    outer loop
      vertex 0 50 71
      vertex 0 50 50
      vertex -12.934389114379883 50 48.284309387207031
    endloop
  endfacet
  facet normal -0 1 0
    outer loop
      vertex 0 50 -71
      vertex -18.709125518798828 50 -68.440109252929688
      vertex -12.93150806427002 50 -48.285060882568359
    endloop
  endfacet
  facet normal 0 1 0
    outer loop
      vertex -12.93150806427002 50 -48.285060882568359
      vertex -35.023086547851562 50 -61.723041534423828
      vertex -24.987594604492188 50 -43.302337646484375
    endloop
  endfacet
  facet normal 0 1 0
    outer loop
      vertex -24.987594604492188 50 -43.302337646484375
      vertex -50.447555541992188 50 -49.891387939453125
      vertex -35.371570587158203 50 -35.338245391845703
    endloop
  endfacet
  facet normal 0 1 0
    outer loop
      vertex -50.447555541992188 50 -49.891387939453125
      vertex -61.294391632080078 50 -35.759403228759766
      vertex -43.301410675048828 50 -24.989274978637695
    endloop
  endfacet
  facet normal 0 1 0
    outer loop
      vertex -43.301410675048828 50 -24.989274978637695
      vertex -68.623184204101562 50 -18.025888442993164
      vertex -48.285957336425781 50 -12.928064346313477
    endloop
  endfacet
  facet normal -0 1 0
    outer loop
      vertex -68.623184204101562 50 -18.025888442993164
      vertex -70.961997985839844 50 -0.34176880121231079
      vertex -49.999893188476562 50 -0.004766649566590786
    endloop
  endfacet
  facet normal 0 1 0
    outer loop
      vertex -49.999893188476562 50 -0.004766649566590786
      vertex -68.446159362792969 50 18.686553955078125
      vertex -48.285041809082031 50 12.93157958984375
    endloop
  endfacet
  facet normal 0 1 -0
    outer loop
      vertex -68.446159362792969 50 18.686553955078125
      vertex -61.640274047851562 50 35.164806365966797
      vertex -43.305816650390625 50 24.98126220703125
    endloop
  endfacet
  facet normal 0 1 0
    outer loop
      vertex -43.305816650390625 50 24.98126220703125
      vertex -50.403133392333984 50 49.935810089111328
      vertex -35.347969055175781 50 35.362335205078125
    endloop
  endfacet
  facet normal 0 1 -0
    outer loop
      vertex -35.347969055175781 50 35.362335205078125
      vertex -35.199916839599609 50 61.617488861083984
      vertex -24.985576629638672 50 43.303447723388672
    endloop
  endfacet
  facet normal 0 1 -0
    outer loop
      vertex -24.985576629638672 50 43.303447723388672
      vertex -18.70759391784668 50 68.440521240234375
      vertex -12.934389114379883 50 48.284309387207031
    endloop
  endfacet
  facet normal -0 1 -0
    outer loop
      vertex 12.934389114379883 50 48.284309387207031
      vertex 0 50 71
      vertex 18.70759391784668 50 68.440521240234375
    endloop
  endfacet
  facet normal -0 1 0
    outer loop
      vertex 12.93150806427002 50 -48.285060882568359
      vertex 0 50 -71
      vertex 0 50 -50
    endloop
  endfacet
  facet normal 0 1 0
    outer loop
      vertex 35.023086547851562 50 -61.723041534423828
      vertex 18.709125518798828 50 -68.440109252929688
      vertex 12.93150806427002 50 -48.285060882568359
    endloop
  endfacet
  facet normal 0 1 0
    outer loop
      vertex 50.447555541992188 50 -49.891387939453125
      vertex 35.023086547851562 50 -61.723041534423828
      vertex 24.987594604492188 50 -43.302337646484375
    endloop
  endfacet
  facet normal -0 1 0
    outer loop
      vertex 43.301410675048828 50 -24.989274978637695
      vertex 50.447555541992188 50 -49.891387939453125
      vertex 35.371570587158203 50 -35.338245391845703
    endloop
  endfacet
  facet normal -0 1 0
    outer loop
      vertex 68.623184204101562 50 -18.025888442993164
      vertex 61.294391632080078 50 -35.759403228759766
      vertex 43.301410675048828 50 -24.989274978637695
    endloop
  endfacet
  facet normal 0 1 -0
    outer loop
      vertex 49.999893188476562 50 -0.004766649566590786
      vertex 68.623184204101562 50 -18.025888442993164
      vertex 48.285957336425781 50 -12.928064346313477
    endloop
  endfacet
  facet normal 0 1 -0
    outer loop
      vertex 68.446159362792969 50 18.686553955078125
      vertex 70.961997985839844 50 -0.34176880121231079
      vertex 49.999893188476562 50 -0.004766649566590786
    endloop
  endfacet
  facet normal -0 1 -0
    outer loop
      vertex 43.305816650390625 50 24.98126220703125
      vertex 68.446159362792969 50 18.686553955078125
      vertex 48.285041809082031 50 12.93157958984375
    endloop
  endfacet
  facet normal -0 1 0
    outer loop
      vertex 50.403133392333984 50 49.935810089111328
      vertex 61.640274047851562 50 35.164806365966797
      vertex 43.305816650390625 50 24.98126220703125
    endloop
  endfacet
  facet normal -0 1 -0
    outer loop
      vertex 35.199916839599609 50 61.617488861083984
      vertex 50.403133392333984 50 49.935810089111328
      vertex 35.347969055175781 50 35.362335205078125
    endloop
  endfacet
  facet normal -0 1 -0
    outer loop
      vertex 18.70759391784668 50 68.440521240234375
      vertex 35.199916839599609 50 61.617488861083984
      vertex 24.985576629638672 50 43.303447723388672
    endloop
  endfacet
  facet normal 0.70710678118654791 -0 0.70710678118654724
    outer loop
      vertex 35.355339059327342 50 -35.355339059327356
      vertex 50.204581464244839 46 -50.204581464244868
      vertex 50.20458146424486 50 -50.204581464244889
    endloop
  endfacet
  facet normal 0.70710678118654768 -1.3534147347811443e-15 0.70710678118654735
    outer loop
      vertex 35.355339059327342 50 -35.355339059327356
      vertex 35.355339059327356 46 -35.355339059327378
      vertex 50.204581464244839 46 -50.204581464244868
    endloop
  endfacet
  facet normal 1 0 -0
    outer loop
      vertex 0 50 -49.999999999999964
      vertex 0 46 -70.999999999999972
      vertex 0 50 -71
    endloop
  endfacet
  facet normal 1 0 -0
    outer loop
      vertex 0 50 -49.999999999999964
      vertex 0 46 -49.999999999999986
      vertex 0 46 -70.999999999999972
    endloop
  endfacet
  facet normal 0.70710678118654724 -0 -0.70710678118654791
    outer loop
      vertex -35.355339059327356 50 -35.355339059327349
      vertex -50.204581464244868 46 -50.204581464244846
      vertex -50.204581464244889 50 -50.204581464244868
    endloop
  endfacet
  facet normal 0.70710678118654735 -1.3534147347811443e-15 -0.70710678118654768
    outer loop
      vertex -35.355339059327356 50 -35.355339059327349
      vertex -35.355339059327378 46 -35.355339059327363
      vertex -50.204581464244868 46 -50.204581464244846
    endloop
  endfacet
  facet normal 0 -0 -1
    outer loop
      vertex -49.999999999999964 50 0
      vertex -70.999999999999972 46 0
      vertex -71 50 0
    endloop
  endfacet
  facet normal 0 -0 -1
    outer loop
      vertex -49.999999999999964 50 0
      vertex -49.999999999999986 46 0
      vertex -70.999999999999972 46 0
    endloop
  endfacet
  facet normal -0.70710678118654746 -1.2560739669470199e-15 -0.70710678118654746
    outer loop
      vertex -35.355339059327349 50 35.355339059327356
      vertex -50.204581464244846 46 50.20458146424486
      vertex -50.204581464244868 50 50.204581464244875
    endloop
  endfacet
  facet normal -0.70710678118654768 1.1156177909894731e-30 -0.70710678118654735
    outer loop
      vertex -35.355339059327349 50 35.355339059327356
      vertex -35.355339059327363 46 35.35533905932737
      vertex -50.204581464244846 46 50.20458146424486
    endloop
  endfacet
  facet normal -1 -0 -0
    outer loop
      vertex 0 50 49.999999999999964
      vertex 0 46 70.999999999999972
      vertex 0 50 71
    endloop
  endfacet
  facet normal -1 -0 -0
    outer loop
      vertex 0 50 49.999999999999964
      vertex 0 46 49.999999999999986
      vertex 0 46 70.999999999999972
    endloop
  endfacet
  facet normal -0.70710678118654746 -0 0.70710678118654746
    outer loop
      vertex 35.355339059327356 50 35.355339059327356
      vertex 50.20458146424486 46 50.20458146424486
      vertex 50.204581464244875 50 50.204581464244875
    endloop
  endfacet
  facet normal -0.70710678118654746 -0 0.70710678118654746
    outer loop
      vertex 35.355339059327356 50 35.355339059327356
      vertex 35.35533905932737 46 35.35533905932737
      vertex 50.20458146424486 46 50.20458146424486
    endloop
  endfacet
  facet normal 0 0 1
    outer loop
      vertex 49.999999999999964 50 0
      vertex 70.999999999999972 46 0
      vertex 71 50 0
    endloop
  endfacet
  facet normal 0 0 1
    outer loop
      vertex 49.999999999999964 50 0
      vertex 49.999999999999986 46 0
      vertex 70.999999999999972 46 0
    endloop
  endfacet
endsolid OBJECT
